<?xml version="1.0" standalone="no"?><!DOCTYPE svg PUBLIC "-//W3C//DTD SVG 1.1//EN" "http://www.w3.org/Graphics/SVG/1.1/DTD/svg11.dtd"><svg t="1526364088200" class="icon" style="" viewBox="0 0 1024 1024" version="1.1" xmlns="http://www.w3.org/2000/svg" p-id="10132" xmlns:xlink="http://www.w3.org/1999/xlink" width="200" height="200"><defs><style type="text/css"></style></defs><path d="M373.76 514.56c0 74.24 61.44 135.68 135.68 135.68s135.68-61.44 135.68-135.68-61.44-135.68-135.68-135.68-135.68 61.44-135.68 135.68z" fill="#a9b6c6" p-id="10133"></path><path d="M509.44 307.2h427.52C860.16 148.48 698.88 40.96 512 40.96c-135.68 0-258.56 56.32-343.04 148.48l145.92 256c28.16-79.36 104.96-138.24 194.56-138.24z" fill="#a9b6c6" p-id="10134"></path><path d="M550.4 716.8c-12.8 2.56-28.16 5.12-40.96 5.12-74.24 0-138.24-38.4-174.08-94.72L120.32 250.88C69.12 325.12 40.96 414.72 40.96 512c0 227.84 161.28 417.28 376.32 460.8l-10.24-5.12L550.4 716.8z" fill="#a9b6c6" p-id="10135"></path><path d="M962.56 378.88H665.6c30.72 35.84 51.2 84.48 51.2 135.68 0 40.96-10.24 76.8-30.72 110.08l-207.36 358.4c10.24 0 23.04 2.56 33.28 2.56 261.12 0 471.04-209.92 471.04-471.04 0-48.64-7.68-94.72-20.48-135.68z" fill="#a9b6c6" p-id="10136"></path></svg>