<svg class="icon" viewBox="0 0 1024 1024" xmlns="http://www.w3.org/2000/svg" width="200" height="200"><defs><style/></defs><path d="M511.989.773c282.327 0 511.216 228.888 511.216 511.216 0 282.35-228.889 511.216-511.216 511.216S.773 794.339.773 511.989C.773 229.66 229.66.773 511.989.773z" fill="#a9b6c6"/><path d="M453.165 733.538a115.194 115.194 0 0 1-162.749-.045 115.149 115.149 0 0 1 0-162.703l115.262-115.285a115.194 115.194 0 0 1 166.27 3.749 28.628 28.628 0 0 1 6.476 7.725l.454.568-.09.068a27.583 27.583 0 0 1-37.512 37.148c-.727.773-7.953-6.43-11.792-10.27l-.023-.022a59.755 59.755 0 0 0-84.658-.182L329.337 609.756a59.983 59.983 0 0 0 0 84.839l.023.045a59.983 59.983 0 0 0 84.839 0l69.502-69.502a89.747 89.747 0 0 0 76.842 1.022L453.165 733.538zM733.538 453.21L618.253 568.495a115.194 115.194 0 0 1-166.27-3.749 27.924 27.924 0 0 1-6.475-7.702l-.432-.568.091-.068a27.56 27.56 0 0 1 37.512-37.149c.727-.772 7.952 6.43 11.792 10.27l.045.023a59.755 59.755 0 0 0 84.658.182L694.64 414.267a59.983 59.983 0 0 0 0-84.84l-.022-.022a59.983 59.983 0 0 0-84.84 0l-69.502 69.503a89.997 89.997 0 0 0-76.842-1.023l107.424-107.423a115.194 115.194 0 0 1 162.749.045 115.262 115.262 0 0 1-.069 162.703z" fill="#FFF"/></svg>