<?xml version="1.0" standalone="no"?><!DOCTYPE svg PUBLIC "-//W3C//DTD SVG 1.1//EN" "http://www.w3.org/Graphics/SVG/1.1/DTD/svg11.dtd"><svg t="1526364012725" class="icon" style="" viewBox="0 0 1024 1024" version="1.1" xmlns="http://www.w3.org/2000/svg" p-id="3352" xmlns:xlink="http://www.w3.org/1999/xlink" width="200" height="200"><defs><style type="text/css"></style></defs><path d="M511.98864 0.772504c282.327631 0 511.216135 228.888504 511.216135 511.216136 0 282.350352-228.888504 511.216135-511.216135 511.216135s-511.216135-228.865784-511.216136-511.216135c0-282.327631 228.888504-511.216135 511.216136-511.216136z" fill="#a9b6c6" p-id="3353"></path><path d="M453.164703 733.538352a115.194036 115.194036 0 0 1-162.748497-0.045441 115.148594 115.148594 0 0 1 0-162.703055l115.262198-115.284919a115.194036 115.194036 0 0 1 166.270208 3.748918 28.628104 28.628104 0 0 1 6.475405 7.725044l0.454414 0.568018-0.090883 0.068162a27.582951 27.582951 0 0 1-37.511904 37.148373c-0.727063 0.772504-7.952251-6.429963-11.792052-10.269765l-0.022721-0.02272a59.755486 59.755486 0 0 0-84.657392-0.181766l-115.466684 115.466684a59.982693 59.982693 0 0 0 0 84.839158l0.02272 0.045442a59.982693 59.982693 0 0 0 84.839158 0l69.502674-69.502674a89.746833 89.746833 0 0 0 76.841465 1.022432l-107.378109 107.378109z m280.373649-280.328208l-115.284918 115.284919a115.194036 115.194036 0 0 1-166.270208-3.748918 27.923761 27.923761 0 0 1-6.475405-7.702323l-0.431693-0.568018 0.090883-0.068162a27.56023 27.56023 0 0 1 37.511904-37.148373c0.727063-0.772504 7.952251 6.429963 11.792052 10.269764l0.045441 0.022721a59.755486 59.755486 0 0 0 84.657392 0.181766l115.466685-115.466685a59.982693 59.982693 0 0 0 0-84.839157l-0.022721-0.022721a59.982693 59.982693 0 0 0-84.839158 0l-69.502674 69.502674a89.996761 89.996761 0 0 0-76.841465-1.022433l107.423551-107.42355a115.194036 115.194036 0 0 1 162.748496 0.045441 115.262198 115.262198 0 0 1-0.068162 162.703055z" fill="#FFFFFF" p-id="3354"></path></svg>