<svg class="icon" viewBox="0 0 1024 1024" xmlns="http://www.w3.org/2000/svg" width="200" height="200"><defs><style/></defs><path d="M668.393 445.905v-.93.93zM446.836 668.393l.931.93h-.93.93l-.93-.93z" fill="#50B674"/><path d="M512 0C229.004 0 0 229.004 0 512s229.004 512 512 512 512-229.004 512-512S794.996 0 512 0zm100.538 280.204c20.48 8.378 40.03 20.48 57.717 34.443 7.447 5.586 14.894 12.102 21.41 18.618 15.826 15.826 28.859 33.513 40.03 52.131 2.792 4.655 5.585 9.31 7.447 13.964L612.538 525.033c.931-7.448 0-244.83 0-244.83zm-128.465-17.688c9.309-.93 18.618-1.861 28.858-1.861 22.342 0 44.684 2.792 65.164 8.378 5.585 1.862 10.24 2.792 15.825 4.654v178.735c-5.585-6.517-175.01-173.15-175.01-173.15 20.48-8.377 41.89-13.963 65.163-16.756zm-169.426 92.16c5.586-7.447 12.102-13.963 18.618-21.41 15.826-15.826 33.513-28.859 52.131-40.03 4.655-2.792 9.31-5.585 13.964-7.447l126.604 125.673c-7.448-.931-245.76 0-245.76 0 9.309-19.55 20.48-39.098 34.443-56.786zm-52.13 185.251c-.932-9.309-1.862-18.618-1.862-27.927 0-22.342 2.792-43.753 8.378-65.164 1.862-5.585 2.792-10.24 4.654-15.825h178.735c-5.586 4.654-173.15 174.08-173.15 174.08-8.377-20.48-13.963-41.891-16.756-65.164zm91.228 168.495c-7.447-5.586-14.894-12.102-21.41-18.618-15.826-15.826-28.859-33.513-40.03-52.131-2.792-4.655-5.585-9.31-7.447-13.964l126.604-125.673c-.931 7.448 0 245.76 0 244.83-20.48-9.31-39.098-20.48-57.717-34.444zm186.182 53.062c-9.309.93-18.618 1.861-27.927 1.861-22.342 0-44.684-2.792-65.164-8.378-5.585-1.862-10.24-2.792-15.825-4.654V571.578c4.654 6.517 175.01 173.15 175.01 173.15-21.41 8.377-42.821 13.963-66.094 16.756zm167.564-91.23c-5.586 7.448-12.102 14.895-18.618 21.411-15.826 15.826-33.513 28.859-52.131 40.03-4.655 2.792-9.31 5.585-13.964 7.447L496.175 612.538c7.447.931 245.76 0 245.76 0-8.379 20.48-19.55 39.098-34.444 57.717zm47.476-93.09c-1.862 5.585-2.792 10.24-4.654 15.825H570.647c6.517-4.654 174.08-174.08 174.08-174.08 8.378 20.48 13.964 41.891 16.757 65.164.93 9.309 1.861 18.618 1.861 27.927 0 23.273-2.792 44.684-8.378 65.164z" fill="#50B674"/></svg>