<svg class="icon" viewBox="0 0 1024 1024" xmlns="http://www.w3.org/2000/svg" width="200" height="200"><defs><style/></defs><path d="M512 0C229.004 0 0 229.004 0 512s229.004 512 512 512 512-229.004 512-512S794.996 0 512 0zm210.385 641.396c-7.447 9.31-26.996-1.861-41.89-32.581-3.724 13.963-13.033 36.305-34.444 64.232 35.374 8.378 44.684 42.822 33.513 61.44-8.379 13.033-26.997 24.204-59.579 24.204-58.647 0-83.781-15.826-95.883-26.996-1.862-2.793-5.586-3.724-10.24-3.724-4.655 0-7.447.93-10.24 3.724-11.171 11.17-37.237 26.996-95.884 26.996-32.582 0-52.13-11.171-59.578-24.204-12.102-18.618-1.862-53.062 33.513-61.44-20.48-27.927-29.79-50.269-34.444-64.232-13.964 30.72-34.444 42.821-41.89 32.581-5.586-8.378-8.379-26.065-7.448-38.167 3.724-46.545 34.444-85.644 53.062-106.124-2.793-5.585-8.378-40.029 14.894-63.301v-1.862c0-92.16 65.164-158.255 148.015-158.255 81.92 0 148.014 66.095 148.014 158.255v1.862c23.273 23.272 17.688 57.716 14.895 63.301 17.687 20.48 49.338 59.579 53.062 106.124.93 12.102-.931 29.79-7.448 38.167z" fill="#30A5DD"/></svg>