<svg class="icon" viewBox="0 0 1024 1024" xmlns="http://www.w3.org/2000/svg" width="200" height="200"><defs><style/></defs><path d="M448.698 482.21c-96.814 4.655-175.01 56.786-175.01 121.95s78.196 114.502 175.01 109.847S623.71 647.913 623.71 582.75c-.93-64.233-79.127-105.193-175.01-100.538zm65.164 164.772c-29.79 39.098-88.437 57.716-145.222 26.065-26.996-14.894-26.065-43.752-26.065-43.752s-11.171-92.16 85.643-103.331c97.746-12.102 115.433 81.92 85.644 121.018z" fill="#EA5D5C"/><path d="M448.698 584.61c-6.516 4.655-7.447 13.034-3.723 18.62 2.792 5.585 11.17 6.515 16.756 1.86 5.585-4.654 8.378-13.032 4.654-18.617-2.792-5.586-10.24-6.517-17.687-1.862zm-45.614 13.034c-18.619 1.861-30.72 17.687-30.72 33.512 0 14.895 14.894 26.066 32.581 24.204 17.688-1.862 32.582-15.825 32.582-31.65s-13.963-27.928-34.443-26.066z" fill="#EA5D5C"/><path d="M512 0C229.004 0 0 229.004 0 512s229.004 512 512 512 512-229.004 512-512S794.996 0 512 0zm197.353 626.502c-40.03 85.643-171.288 127.534-268.102 120.087-92.16-7.447-211.316-38.167-223.418-151.738 0 0-6.517-51.2 42.822-117.295 0 0 70.749-99.607 152.669-128.465 82.85-27.927 92.16 19.549 92.16 48.407-4.655 24.204-12.102 38.167 18.618 28.858 0 0 80.989-38.167 114.502-4.654 26.996 26.996 4.654 65.163 4.654 65.163s-11.17 12.102 12.102 16.757c21.41 3.723 94.022 37.236 53.993 122.88zM629.295 390.05c-8.379 0-15.826-7.447-15.826-15.826 0-9.309 7.447-15.825 15.826-15.825 0 0 99.607-18.618 87.505 89.367v1.862c-.93 7.447-7.447 13.964-15.825 13.964-9.31 0-15.826-7.448-15.826-15.826 0-1.862 15.826-73.542-55.854-57.716zm168.494 103.33c-2.793 18.619-12.102 11.172-22.342 11.172-13.032 0-23.272-16.757-23.272-29.79 0-11.17 4.654-22.341 4.654-22.341.931-4.655 12.102-34.444-7.447-78.197-35.375-60.509-106.124-60.509-114.502-57.716-8.378 3.724-21.41 5.586-21.41 5.586-13.034 0-23.274-10.24-23.274-23.273 0-11.171 7.448-19.55 16.757-22.342 0 0 0 .93.93.93s1.862.932 1.862.932c10.24-1.862 45.615-4.655 79.128 3.723 62.37 14.895 146.152 83.782 108.916 211.317z" fill="#EA5D5C"/></svg>