<svg class="icon" viewBox="0 0 1024 1024" xmlns="http://www.w3.org/2000/svg" width="200" height="200"><defs><style/></defs><path d="M512 0C229.004 0 0 229.004 0 512s229.004 512 512 512 512-229.004 512-512S794.996 0 512 0zm261.585 465.455L637.673 582.749l4.654 18.618c-95.883.931-159.185-8.378-159.185-8.378l158.254-112.64c-128.465-26.996-302.545 4.655-288.581 5.586 196.421 6.516 202.007 16.756 202.007 16.756L397.498 615.33C614.4 629.295 674.91 600.436 674.91 600.436s-14.894 12.102-28.858 18.619l32.582 137.774c.93 2.793-.931 6.516-2.793 8.378-1.862.931-2.793 1.862-4.655 1.862s-2.792 0-4.654-.93L512 673.978l-154.53 92.16c-2.794 1.861-6.517 1.861-9.31 0-2.793-1.863-3.724-5.586-2.793-8.379l40.96-175.01-136.843-117.295c-2.793-1.862-3.724-5.586-2.793-8.379s3.724-5.585 7.447-5.585l179.666-14.895 70.749-166.632c.93-2.793 4.654-4.655 7.447-4.655 3.724 0 6.516 1.862 7.447 4.655l69.818 164.77 179.666 14.895c3.724 0 6.516 2.793 7.447 5.586s0 8.378-2.793 10.24z" fill="#F5BC32"/></svg>