<svg class="icon" viewBox="0 0 1024 1024" xmlns="http://www.w3.org/2000/svg" width="200" height="200"><defs><style/></defs><path d="M161.28 222.72h711.613v588.8H161.28z" fill="#FFF" data-spm-anchor-id="a313x.7781069.0.i0"/><path d="M512 .036C229.734.036.067 229.704.067 512S229.734 1024 512 1024c282.332 0 512-229.704 512-512S794.332.036 512 .036zm317.998 369.398l-382.131 382.13a23.455 23.455 0 0 1-33.162.052l-.052-.051-50.14-50.14-165.842-165.842a23.516 23.516 0 0 1 0-33.244l50.105-50.105a23.516 23.516 0 0 1 33.244 0l149.253 149.253L746.644 286.08a23.516 23.516 0 0 1 33.245 0l50.104 50.104a23.516 23.516 0 0 1 .005 33.25z" fill="#198CFF" data-spm-anchor-id="a313x.7781069.0.i1"/></svg>