<?xml version="1.0" standalone="no"?><!DOCTYPE svg PUBLIC "-//W3C//DTD SVG 1.1//EN" "http://www.w3.org/Graphics/SVG/1.1/DTD/svg11.dtd"><svg t="1527083623073" class="icon" style="" viewBox="0 0 1024 1024" version="1.1" xmlns="http://www.w3.org/2000/svg" p-id="701" xmlns:xlink="http://www.w3.org/1999/xlink" width="200" height="200"><defs><style type="text/css"></style></defs><path d="M572.928 284.672A28.672 28.672 0 0 0 544.512 256h-65.024a28.672 28.672 0 0 0-28.672 28.672v6.912h122.112zM364.288 750.336a17.92 17.92 0 0 0 17.664 17.664h260.096a17.92 17.92 0 0 0 17.664-17.664V429.312H364.288z m213.76-281.6a20.48 20.48 0 1 1 40.96 0v259.84a20.48 20.48 0 1 1-40.96 0z m-86.528 0a20.48 20.48 0 0 1 40.96 0v259.84a20.48 20.48 0 0 1-40.96 0z m-86.528 0a20.48 20.48 0 1 1 40.96 0v259.84a20.48 20.48 0 1 1-40.96 0zM299.264 378.112H724.48l0.256-35.584H299.264v35.584z" fill="#FF4D4D" p-id="702"></path><path d="M512 0a512 512 0 1 0 512 512A512 512 0 0 0 512 0z m263.936 378.112a51.2 51.2 0 0 1-51.2 51.2h-13.824v321.024A69.12 69.12 0 0 1 642.048 819.2H381.952a69.12 69.12 0 0 1-68.864-68.864V429.312h-13.824a51.2 51.2 0 0 1-51.2-51.2v-35.584a51.2 51.2 0 0 1 51.2-51.2h100.352v-6.912A79.872 79.872 0 0 1 479.488 204.8h65.024a79.872 79.872 0 0 1 79.872 79.872v6.912h100.352a51.2 51.2 0 0 1 51.2 51.2z" fill="#FF4D4D" p-id="703"></path></svg>