<svg class="icon" viewBox="0 0 1024 1024" xmlns="http://www.w3.org/2000/svg" width="200" height="200"><defs><style/></defs><path d="M572.928 284.672A28.672 28.672 0 0 0 544.512 256h-65.024a28.672 28.672 0 0 0-28.672 28.672v6.912h122.112zm-208.64 465.664A17.92 17.92 0 0 0 381.952 768h260.096a17.92 17.92 0 0 0 17.664-17.664V429.312H364.288zm213.76-281.6a20.48 20.48 0 1 1 40.96 0v259.84a20.48 20.48 0 1 1-40.96 0zm-86.528 0a20.48 20.48 0 0 1 40.96 0v259.84a20.48 20.48 0 0 1-40.96 0zm-86.528 0a20.48 20.48 0 1 1 40.96 0v259.84a20.48 20.48 0 1 1-40.96 0zm-105.728-90.624H724.48l.256-35.584H299.264v35.584z" fill="#707070" data-spm-anchor-id="a313x.7781069.0.i3"/><path d="M512 0a512 512 0 1 0 512 512A512 512 0 0 0 512 0zm263.936 378.112a51.2 51.2 0 0 1-51.2 51.2h-13.824v321.024a69.12 69.12 0 0 1-68.864 68.864H381.952a69.12 69.12 0 0 1-68.864-68.864V429.312h-13.824a51.2 51.2 0 0 1-51.2-51.2v-35.584a51.2 51.2 0 0 1 51.2-51.2h100.352v-6.912a79.872 79.872 0 0 1 79.872-79.616h65.024a79.872 79.872 0 0 1 79.872 79.872v6.912h100.352a51.2 51.2 0 0 1 51.2 51.2z" fill="#707070" data-spm-anchor-id="a313x.7781069.0.i0"/></svg>