<svg class="icon" viewBox="0 0 1024 1024" xmlns="http://www.w3.org/2000/svg" width="200" height="200"><defs><style/></defs><path d="M0 512a512 512 0 1 0 1024 0A512 512 0 1 0 0 512z" fill="#5FADE3" data-spm-anchor-id="a313x.7781069.0.i5" class="selected"/><path d="M271.36 640h481.28c23.04 0 40.96 17.92 40.96 40.96s-17.92 40.96-40.96 40.96H271.36c-23.04 0-40.96-17.92-40.96-40.96S248.32 640 271.36 640zm84.48-128l235.52-235.52 64 64L419.84 576l-69.12 5.12 5.12-69.12zm250.88-253.44l17.92-17.92c10.24-10.24 25.6-10.24 35.84 0l28.16 28.16c10.24 10.24 10.24 25.6 0 35.84l-17.92 17.92-64-64z" fill="#FFF"/></svg>