<svg class="icon" viewBox="0 0 1024 1024" xmlns="http://www.w3.org/2000/svg" width="200" height="200"><defs><style/></defs><path d="M397.952 963.264s-159.296-24.512-237.248-264.64C89.6 509.888 237.312 332.032 235.712 359.808c-1.6 27.712 3.264 55.424 14.144 80.96 12.672 27.712 30.656 52.544 52.992 73.152 0 0-33.984-88.96 48.704-237.12C444.864 109.952 680.32 26.048 650.432 74.24a222.08 222.08 0 0 0-28.608 162.048c18.048 61.312 47.808 91.008 80.64 173.824a308.135 308.135 0 0 1 27.52 131.264c6.08-30.912 17.216-60.672 32.96-87.872A232.704 232.704 0 0 1 882.688 356.8a337.856 337.856 0 0 0-27.52 166.912c6.464 70.208 17.024 151.168-22.272 242.048-47.936 100.032-128.384 172.736-235.328 197.504H397.952z" fill="#fc7378"/><path d="M410.688 963.264s-79.808-30.528-87.424-141.888c-2.88-105.984 76.096-158.016 122.88-228.992 66.944-102.208 48.704-165.504 48.704-165.504s55.936 29.44 88.384 138.112c9.408 30.656 12.544 62.784 9.088 94.784a418.624 418.624 0 0 1-40.576 145.472c-22.272 45.76 61.888-12.224 79.168-117.248 31.36 28.096 51.904 66.624 57.856 108.864 2.688 73.6-32.384 140.992-100.608 166.4H410.688z" fill="#f9f28b" data-spm-anchor-id="a313x.7781069.0.i17" class="selected"/></svg>