<svg class="icon" viewBox="0 0 1024 1024" xmlns="http://www.w3.org/2000/svg" width="200" height="200"><defs><style/></defs><path d="M658.842 449.126c-94.413-104.857-94.413-230.604-94.413-408.985-293.683 115.302-220.16 429.875-230.605 534.733-73.318-62.874-94.413-209.716-94.413-209.716C155.443 407.142 113.46 512 113.46 595.968c0 209.715 178.176 387.891 398.541 387.891s398.54-167.731 398.54-387.891c0-125.747-94.412-188.826-94.412-356.557-136.397 41.984-157.286 146.842-157.286 209.715z" fill="#FF6B6A"/><path d="M501.555 553.984c136.397 52.429 104.858 199.27 104.858 241.254 31.539-31.539 41.984-94.412 41.984-94.412 31.539 20.89 52.429 62.873 52.429 104.857 0 94.413-83.968 178.176-178.176 178.176-94.413 0-178.176-83.968-178.176-178.176 10.24-94.413 157.081-167.936 157.081-251.699z" fill="#FFF" data-spm-anchor-id="a313x.7781069.0.i9"/></svg>