<svg class="icon" viewBox="0 0 1024 1024" xmlns="http://www.w3.org/2000/svg" width="200" height="200"><defs><style/></defs><path d="M450.287 61.44c248.832 0 450.56 201.728 450.56 450.56a61.44 61.44 0 0 0 122.88 0c0-282.76-229.24-512-512-512C236.715 0 12.425 216.815.307 488.79c12.05-238.012 208.896-427.35 449.98-427.35z" fill="#00A0E9"/><path d="M573.747 962.56c-248.832 0-450.56-201.728-450.56-450.56a61.44 61.44 0 0 0-122.88 0c0 282.76 229.206 512 512 512 274.978 0 499.268-216.815 511.42-488.79-12.083 238.047-208.896 427.35-449.98 427.35z" fill="#00A0E9"/></svg>