<svg class="icon" viewBox="0 0 1730 1024" xmlns="http://www.w3.org/2000/svg" width="337.891" height="200"><defs><style/></defs><path d="M187.034 989.765h-99.68a18.163 18.163 0 0 0-19.027 16.433 17.838 17.838 0 0 0 17.73 17.73h99.68a18.163 18.163 0 0 0 19.135-16.54 17.838 17.838 0 0 0-17.838-17.623zm40.542 17.082a17.082 17.082 0 1 0 34.163 0 17.082 17.082 0 1 0-34.163 0zm1484.377-17.082H1396.05a18.163 18.163 0 0 0-19.028 16.433 17.838 17.838 0 0 0 17.73 17.73h315.904a18.055 18.055 0 0 0 19.136-16.54 17.838 17.838 0 0 0-17.839-17.623zm-375.256 0H314.606a17.947 17.947 0 0 0-18.812 16.433 17.73 17.73 0 0 0 17.515 17.73H1335.29a17.947 17.947 0 0 0 18.812-16.54 17.73 17.73 0 0 0-17.514-17.623zm-27.785-568.885h-.216a11.136 11.136 0 0 1 7.135 2.919 11.027 11.027 0 0 0-6.92-2.919zm-.216 22.812a11.352 11.352 0 0 0 11.46-11.352 11.244 11.244 0 0 0-3.352-8.109 11.352 11.352 0 0 1-8.108 19.46zM318.714 682.619a11.244 11.244 0 0 0-3.351-8.108 11.352 11.352 0 0 1-8.109 19.46 11.352 11.352 0 0 0 11.46-11.352zm-11.46-11.46a11.136 11.136 0 0 1 7.352 3.027 11.027 11.027 0 0 0-7.136-3.027zm7.352 3.027l.757.325zm695.917 161.844c-.433.757-.433 1.838-1.081 2.487.648-.65.648-1.622 1.08-2.487zm-9.082 5.838c1.514 0 2.487-1.081 3.676-1.514-1.19.433-2.162 1.514-3.676 1.514zm8.109-19.46a11.568 11.568 0 0 1 2.378 5.838 11.46 11.46 0 0 0-2.378-5.838zm3.351 8.108a10.811 10.811 0 0 1-2.378 5.622 10.811 10.811 0 0 0 2.378-5.622zm-.973-2.27c.216.865.865 1.405.865 2.162 0-.865-.649-1.405-.865-2.162zm-10.487-9.19a10.811 10.811 0 0 1 5.298 2.163 10.703 10.703 0 0 0-5.298-2.163zm4 21.19c1.406-.648 3.028-.648 4.109-1.73-1.081 1.082-2.703 1.082-4.109 1.73zm4.109-17.838c-.757-.649-1.946-.649-2.811-1.081.54.324 1.297.324 1.838.757zm678.078-625.644h4.54v4.54a3.46 3.46 0 0 0 6.812 0v-4.54h4.54a3.351 3.351 0 0 0 3.46-3.352 3.243 3.243 0 0 0-2.919-3.46h-5.081v-4.54a3.46 3.46 0 0 0-6.811 0v4.54h-4.54a3.46 3.46 0 0 0 0 6.812zm-265.847 19.676a11.136 11.136 0 0 0-6.379 2.595l-.973.432a11.352 11.352 0 0 0 0 16.109l.973.324a11.136 11.136 0 0 0 7.136 2.92 11.352 11.352 0 0 0 0-22.704zM11.352 585.859a5.73 5.73 0 1 0 11.46 0 5.73 5.73 0 1 0-11.46 0zm231.9-222.711a11.352 11.352 0 0 1-8.649 0 11.244 11.244 0 0 0 8.649 0z" fill="#CCC"/><path d="M243.252 363.148a11.352 11.352 0 1 0-8.649 0 11.352 11.352 0 0 0 8.649 0zm166.492 57.732a11.352 11.352 0 1 0 3.244-8c-1.081 1.08-1.081 2.594-1.622 4 .54-1.406.54-2.92 1.622-4a11.352 11.352 0 0 0-3.244 8zm79.679 409.636a11.352 11.352 0 1 0 22.703 0 11.352 11.352 0 1 0-22.703 0zm515.91 9.73a11.568 11.568 0 0 0 4.217-1.73 11.352 11.352 0 0 0 0-16.108l-1.081-.324a11.136 11.136 0 0 0-7.028-3.028 11.352 11.352 0 0 0 0 22.812c1.514 0 2.595-1.081 3.892-1.622z" fill="#CCC"/><path d="M1005.117 840.354l.324-.108h-.108l-.216.108zm3.46-18.27l.973.324z" fill="#CCC"/><path d="M1009.55 838.517a11.568 11.568 0 0 1-4.325 1.73h.216c1.406-.65 3.028-.65 4.109-1.73zm-8.109 3.351c1.514 0 2.487-1.081 3.676-1.514h.324c-1.297.433-2.378 1.514-3.892 1.514zm314.895-417.634a.216.216 0 1 0 .17-.399.216.216 0 1 0-.17.398z" fill="#CCC"/><path d="M1308.696 443.692a11.352 11.352 0 0 0 8.108-19.46l-.432-.217a11.244 11.244 0 0 0-7.568-3.135 11.352 11.352 0 0 0 0 22.703z" fill="#CCC"/><path d="M1320.047 432.232a11.352 11.352 0 0 0-3.243-8 11.352 11.352 0 0 1 3.243 8zm-3.675-8.217l.432.216zm0 0l-.541-.216a11.136 11.136 0 0 0-7.135-2.919 11.244 11.244 0 0 1 7.567 3.243zM176.439 261.631a5.73 5.73 0 0 0 0-11.352 5.73 5.73 0 0 0 0 11.352zm0-11.352zM1162.42 77.841a5.73 5.73 0 1 0 0-8 5.622 5.622 0 0 0 0 8.108 5.622 5.622 0 0 1-1.622-4.109 5.73 5.73 0 0 0 1.622 4.109zM296.767 687.05a11.244 11.244 0 0 1-.864-4.432 11.244 11.244 0 0 0 .864 4.325z" fill="#CCC"/><path d="M307.254 693.97a11.352 11.352 0 1 0-10.487-6.918 11.352 11.352 0 0 0 10.487 6.919zM1545.57 547.048a11.136 11.136 0 0 1 4.324 0 9.73 9.73 0 0 0-4.324 0z" fill="#CCC"/><path d="M1536.271 557.425a11.352 11.352 0 1 0 19.46-8 10.811 10.811 0 0 0-5.838-2.486 11.136 11.136 0 0 0-4.324 0 10.811 10.811 0 0 0-5.946 2.486 11.352 11.352 0 0 0 0 16 11.352 11.352 0 0 1-3.244-8zM1570.435 85.3c0-.973-1.298-.865-1.622-1.621a5.081 5.081 0 0 1 0 3.243c.324-.757 1.622-.757 1.622-1.622z" fill="#CCC"/><path d="M1564.813 90.922c2.162 0 3.027-2.162 4-4a5.081 5.081 0 0 0 0-3.243c-.973-1.946-1.838-4.109-4.108-4.109a5.622 5.622 0 0 0 0 11.352zM341.418 802.082zm-5.73 5.623a5.73 5.73 0 0 0 5.73-5.622 5.73 5.73 0 1 0-5.73 5.622zM1378.212 695.16a10.163 10.163 0 0 0 20.433 0v-13.73h13.622a10.054 10.054 0 0 0 10.27-9.946v-.325a10.27 10.27 0 0 0-10.27-10.162h-13.622v-13.73a10.163 10.163 0 0 0-20.541 0v13.73h-13.623a10.163 10.163 0 0 0 0 20.433h13.73zM361.418 537.425v11.568a8.433 8.433 0 1 0 16.866 0v-11.676h11.568a8.433 8.433 0 0 0 8.433-8.325v-.108a8.649 8.649 0 0 0-8.433-8.433h-11.568v-11.568a8.433 8.433 0 1 0-16.866 0v11.568H349.85a8.433 8.433 0 1 0 0 16.866zm913.763-367.473v6.92a5.081 5.081 0 0 0 10.162 0v-6.92h6.92a5.081 5.081 0 0 0 5.08-4.973 5.297 5.297 0 0 0-5.08-5.19h-6.92v-6.81a5.081 5.081 0 1 0-10.162 0v6.81h-6.92a5.081 5.081 0 0 0 0 10.163zM349.959 59.678h11.351V71.03a8.649 8.649 0 0 0 8.541 8.649 8.325 8.325 0 0 0 8.65-8.217V59.678h11.243a8.649 8.649 0 1 0 0-17.082h-11.352V31.244a8.54 8.54 0 0 0-8.54-8.649 8.325 8.325 0 0 0-8.65 8.217v11.784H349.96a8.649 8.649 0 0 0-8.65 8.541 8.325 8.325 0 0 0 8.217 8.649zM583.913 14.81h4.324v4.325a3.568 3.568 0 0 0 7.028 0v-4.649h4.324a3.46 3.46 0 0 0 3.676-3.676 3.46 3.46 0 0 0-3.568-3.135h-4.324V3.351a3.568 3.568 0 0 0-7.028 0v4.325h-4.324a3.568 3.568 0 0 0-.216 7.135zM22.27 307.58v-6.595a5.081 5.081 0 0 0-4.973-5.19h-.216a5.081 5.081 0 0 0-5.19 4.865v6.92H5.19a5.19 5.19 0 0 0 0 10.486h6.703v6.595a5.081 5.081 0 0 0 4.973 5.19h.217a5.081 5.081 0 0 0 5.19-4.865v-7.136h6.702a5.081 5.081 0 0 0 5.19-4.865v-.324a5.406 5.406 0 0 0-5.19-5.19zm277.091-8.433h4.433v4.54a3.46 3.46 0 0 0 6.919 0v-4.54h4.54a3.46 3.46 0 1 0 0-6.811h-4.54v-4.54a3.46 3.46 0 0 0-6.92 0v4.54h-4.324a3.46 3.46 0 0 0-.108 6.81zm1123.176 70.489a8.649 8.649 0 0 0 8.54 8.649h11.244v11.243a8.649 8.649 0 0 0 17.298 0v-11.243h11.135a8.649 8.649 0 0 0 8.65-8.541 8.757 8.757 0 0 0-8.65-8.649h-11.135V349.85a8.649 8.649 0 0 0-17.298 0v11.244h-11.135a8.649 8.649 0 0 0-8.65 8.54zM500.775 887.383a7.135 7.135 0 0 0 6.81 6.811h9.082v9.082a6.92 6.92 0 0 0 6.811 6.81 7.135 7.135 0 0 0 6.811-6.81v-9.082h9.082a6.811 6.811 0 0 0 0-13.622h-9.082v-9.19a6.811 6.811 0 0 0-6.81-6.919 7.135 7.135 0 0 0-6.812 6.92v9.081h-9.081a6.92 6.92 0 0 0-6.811 6.811zm921.763-671.267h-.217c-1.621 0-2.702 1.081-4.108 1.73a10.487 10.487 0 0 1 3.568-1.406zm-11.46 11.244v.108c0-1.514 1.08-2.595 1.621-4-.54 1.405-1.621 2.378-1.621 3.892zm3.351 8.108a11.568 11.568 0 0 1-1.73-4c.54 1.405.649 3.027 1.73 4zm-1.73-12a11.568 11.568 0 0 1 1.73-4c-1.081 1.08-1.081 2.702-1.73 4zm9.622 15.46h.217c-1.73 0-2.811-1.082-4.325-1.838 1.406.648 2.487 1.73 4.108 1.73zm-7.892-3.352c.973.865 2.487 1.081 3.784 1.514a11.892 11.892 0 0 1-2.81-1.082zm-1.73-4.108c-.54-1.298-1.621-2.379-1.621-4v.108c0 1.513 1.08 2.594 1.621 3.892zm2.703-12.433a11.136 11.136 0 0 1 2.811-1.19c-1.297.541-2.81.65-3.784 1.622zm-.973.432l1.081-.432zm.973 16.433l-.973-.324zm7.136-19.784l-.757.324.757-.324zM412.988 428.988a11.352 11.352 0 0 1-3.244-8.108c0-1.514 1.082-2.595 1.622-4-.54 1.405-1.73 2.486-1.73 4a11.352 11.352 0 0 0 3.352 8.108z" fill="#CCC"/><path d="M412.988 412.88c-1.081 1.08-1.081 2.594-1.622 4s-1.73 2.486-1.73 4a11.352 11.352 0 0 1 3.352-8zM1162.42 69.84a5.73 5.73 0 0 0-1.622 4 5.622 5.622 0 0 1 1.622-4z" fill="#CCC"/><path d="M1162.42 69.84a5.622 5.622 0 0 0 0 8.109 5.622 5.622 0 0 1 0-8.109zm373.96 487.585zm-.109 0a11.352 11.352 0 0 1 3.352-8 11.244 11.244 0 0 0-3.244 8zm3.352 8a11.352 11.352 0 0 1-3.244-8 11.352 11.352 0 0 0 3.244 8z" fill="#CCC"/><path d="M660.024 631.374a5.73 5.73 0 1 0 11.46 0 5.73 5.73 0 1 0-11.46 0z" fill="#EBEBEB"/><path d="M1082.958 310.065a90.814 90.814 0 0 0-84.76-91.354h-243.9a90.814 90.814 0 0 0-84.869 91.354v230.82a90.814 90.814 0 0 0 84.868 91.354h219.9c.108-111.572 3.352-115.247 108.76-115.356zm-221.09 215.9h-87.246a9.081 9.081 0 0 1 0-18.055h87.247a9.081 9.081 0 0 1 0 18.055zm116.005-91.463h-203.25a9.081 9.081 0 0 1 0-18.055h203.25a9.081 9.081 0 1 1 0 18.055zm0-91.463h-203.25a9.081 9.081 0 0 1 0-18.162h203.25a9.081 9.081 0 1 1 0 18.162z" fill="#EFEFEF"/><path d="M754.297 641.645h213.305a6.703 6.703 0 0 0 6.703-6.703v-2.703H754.297a90.814 90.814 0 0 1-84.868-91.355V310.065a90.814 90.814 0 0 1 84.868-91.354h243.901a90.814 90.814 0 0 1 84.76 91.354v206.818h2.81a6.703 6.703 0 0 0 6.704-6.703V310.281a100.328 100.328 0 0 0-94.274-100.976h-243.9a90.165 90.165 0 0 0-67.03 31.352 105.301 105.301 0 0 0-27.244 69.516v230.82a105.301 105.301 0 0 0 27.352 69.515 90.165 90.165 0 0 0 67.03 31.353z" fill="#CCC"/><path d="M974.197 632.239c59.354 0 108.76-75.354 108.76-115.356-105.408.109-108.652 3.784-108.76 115.356zM774.622 324.877a9.081 9.081 0 0 0 0 18.162h203.25a9.081 9.081 0 1 0 0-18.162zm0 183.033a9.081 9.081 0 0 0 0 18.055h87.139a9.081 9.081 0 0 0 0-18.055zm0-91.463a9.081 9.081 0 0 0 0 18.055h203.25a9.081 9.081 0 1 0 0-18.055z" fill="#CCC"/></svg>