<svg class="icon" viewBox="0 0 1729 1024" xmlns="http://www.w3.org/2000/svg" width="337.695" height="200"><defs><style/></defs><path d="M187.034 989.873h-99.68a18.163 18.163 0 0 0-19.027 16.433 17.838 17.838 0 0 0 17.73 17.623h99.68a18.163 18.163 0 0 0 19.135-16.433 17.838 17.838 0 0 0-17.838-17.623zm40.542 16.974a17.082 17.082 0 1 0 34.163 0 17.082 17.082 0 1 0-34.163 0zm1484.377-16.974H1396.05a18.163 18.163 0 0 0-19.028 16.433 17.838 17.838 0 0 0 17.73 17.623h315.904a18.163 18.163 0 0 0 19.136-16.325 17.838 17.838 0 0 0-17.839-17.623zm-375.256 0H314.606a17.947 17.947 0 0 0-18.812 16.433 17.73 17.73 0 0 0 17.515 17.623H1335.29a17.947 17.947 0 0 0 18.812-16.433 17.73 17.73 0 0 0-17.514-17.623zm215.467-442.826a11.46 11.46 0 0 0-8.865 0 11.46 11.46 0 0 1 8.865 0zM296.767 687.052a11.352 11.352 0 0 1-.864-4.325 11.352 11.352 0 0 0 .864 4.325zm1023.28-254.712a11.352 11.352 0 0 1-11.351 11.352 11.352 11.352 0 1 0 0-22.704 11.352 11.352 0 0 1 11.46 11.352zM318.606 682.62a11.352 11.352 0 0 1-11.352 11.35 11.352 11.352 0 1 0 0-22.703 11.352 11.352 0 0 1 11.352 11.352zM1568.705 89.3a5.73 5.73 0 0 0 0-8 5.73 5.73 0 0 1 0 8zM330.065 802.192a5.622 5.622 0 0 1 1.623-4.108 5.622 5.622 0 0 0-1.622 4zm671.376 16.974a11.352 11.352 0 1 1 0 22.703 11.352 11.352 0 1 0 0-22.703zM341.418 802.19a5.622 5.622 0 0 0-1.73-4.108 5.622 5.622 0 0 1 1.73 4zm-164.98-540.56a5.73 5.73 0 0 0 5.19-3.46 5.73 5.73 0 0 1-5.19 3.46zm5.19-7.892a5.73 5.73 0 0 0-5.19-3.46 5.73 5.73 0 0 1 5.19 3.46zm1506-56.975h4.54v4.649a3.46 3.46 0 1 0 6.812 0v-4.65h4.54a3.351 3.351 0 0 0 3.46-3.459 3.243 3.243 0 0 0-3.46-3.46h-4.54v-4.54a3.46 3.46 0 1 0-6.811 0v4.54h-4.54a3.46 3.46 0 0 0 0 6.92zm-276.442 30.813a11.352 11.352 0 1 0 22.703 0 11.352 11.352 0 1 0-22.703 0zM11.352 585.967a5.73 5.73 0 1 0 11.46 0 5.73 5.73 0 1 0-11.46 0zm223.251-222.711a11.352 11.352 0 1 0-6.054-6.162 11.352 11.352 0 0 0 6.054 6.054zm178.385 65.732a11.352 11.352 0 1 0-3.244-8 11.352 11.352 0 0 0 3.244 8zm76.435 401.528a11.352 11.352 0 1 0 22.703 0 11.352 11.352 0 1 0-22.703 0z" fill="#CCC"/><path d="M990.09 830.516a11.352 11.352 0 1 0 22.703 0 11.352 11.352 0 1 0-22.703 0zm307.254-398.176a11.352 11.352 0 1 0 22.703 0 11.352 11.352 0 1 0-22.703 0zM176.439 261.631a5.73 5.73 0 1 0-5.73-5.622 5.73 5.73 0 0 0 5.73 5.622zM1162.42 77.949a5.73 5.73 0 1 0-1.622-4 5.622 5.622 0 0 0 1.622 4zm-855.166 616.13a11.352 11.352 0 1 0-10.487-7.027 11.352 11.352 0 0 0 10.487 6.919zm1232.369-128.545a11.352 11.352 0 1 0-3.244-8 11.352 11.352 0 0 0 3.244 8zm25.19-474.504a5.73 5.73 0 1 0-5.73-5.73 5.622 5.622 0 0 0 5.73 5.73zM335.688 807.813a5.73 5.73 0 1 0-4-1.73 5.622 5.622 0 0 0 4 1.73zM1364.373 681.43h13.839v13.73a10.163 10.163 0 0 0 20.433 0v-13.73h13.622a10.054 10.054 0 0 0 10.27-10.163 10.27 10.27 0 0 0-10.27-10.162h-13.622v-13.73a10.163 10.163 0 0 0-20.541 0v13.622h-13.623a10.163 10.163 0 1 0 0 20.541zM349.85 537.533h11.568v11.46a8.433 8.433 0 0 0 16.866 0v-11.46h11.568a8.433 8.433 0 0 0 8.433-8.541 8.649 8.649 0 0 0-8.433-8.433h-11.568v-11.352a8.433 8.433 0 0 0-16.866 0v11.46H349.85a8.433 8.433 0 1 0 0 16.974zm918.412-367.473h6.919v6.92a5.081 5.081 0 0 0 10.162 0v-6.92h6.92a5.081 5.081 0 0 0 5.08-5.081 5.297 5.297 0 0 0-5.08-5.081h-6.92v-6.92a5.081 5.081 0 0 0-10.162 0v6.92h-6.92a5.081 5.081 0 1 0 0 10.162zM349.959 59.786h11.351V71.03a8.649 8.649 0 0 0 8.541 8.649 8.325 8.325 0 0 0 8.65-8.65V59.787h11.243a8.649 8.649 0 1 0 0-17.19h-11.352V31.352a8.649 8.649 0 0 0-8.54-8.648 8.325 8.325 0 0 0-8.65 8.648v11.244H349.96a8.649 8.649 0 0 0-8.65 8.65 8.325 8.325 0 0 0 8.65 8.54zm233.954-44.867h4.324v4.325a3.568 3.568 0 0 0 7.028 0v-4.757h4.324a3.568 3.568 0 0 0 3.676-3.46 3.46 3.46 0 0 0-3.568-3.243h-4.324V3.46a3.568 3.568 0 0 0-7.028 0v4.324h-4.324a3.568 3.568 0 1 0 0 7.135zM11.893 324.77a5.081 5.081 0 0 0 5.189 5.189 5.081 5.081 0 0 0 5.19-5.19v-6.703h6.702a5.081 5.081 0 0 0 5.19-5.189 5.406 5.406 0 0 0-5.19-5.19h-6.703v-6.702a5.081 5.081 0 0 0-5.19-5.19 5.081 5.081 0 0 0-5.189 5.19v6.703H5.19a5.19 5.19 0 1 0 0 10.378h6.703zm287.47-25.515h4.432v4.54a3.46 3.46 0 0 0 6.919 0v-4.54h4.54a3.46 3.46 0 1 0 0-6.92h-4.54v-4.432a3.46 3.46 0 0 0-6.92 0v4.433h-4.324a3.46 3.46 0 1 0 0 6.919zm1123.175 70.489a8.649 8.649 0 0 0 8.649 8.649h11.135v11.135a8.649 8.649 0 0 0 17.298 0v-11.135h11.135a8.649 8.649 0 0 0 8.65-8.649 8.757 8.757 0 0 0-8.65-8.649h-11.135V349.96a8.649 8.649 0 0 0-17.298 0v11.135h-11.135a8.649 8.649 0 0 0-8.65 8.649zm-921.763 517.64a7.135 7.135 0 0 0 6.81 6.92h9.082v9.08a6.92 6.92 0 0 0 6.811 6.812 7.135 7.135 0 0 0 6.811-6.811v-9.082h9.082a6.811 6.811 0 1 0 0-13.73h-9.082v-9.081a6.92 6.92 0 0 0-6.81-6.811 7.135 7.135 0 0 0-6.812 6.81v9.082h-9.081a6.92 6.92 0 0 0-6.811 6.811zm-272.226-530.29a11.46 11.46 0 0 0 6.054 6.055 11.46 11.46 0 0 1-6.054-6.054zm14.92 6.163a11.46 11.46 0 0 0 6.053-6.162 11.46 11.46 0 0 1-6.054 6.054zm-8.866 0a11.46 11.46 0 0 0 8.865 0 11.46 11.46 0 0 1-8.865 0zm1187.935-124.329a11.352 11.352 0 1 1 0-22.703 11.352 11.352 0 1 0 0 22.703z" fill="#CCC"/><path d="M295.903 682.62a11.352 11.352 0 0 1 .864-4.325 11.352 11.352 0 0 0-.864 4.324zm113.841-261.632a11.352 11.352 0 0 1 3.244-8.108 11.352 11.352 0 0 0 0 16.216 11.352 11.352 0 0 1-3.244-8.108zm751.054-347.04a5.622 5.622 0 0 1 1.622-4 5.73 5.73 0 0 0 0 8 5.622 5.622 0 0 1-1.622-4zm-829.11 732.135a5.622 5.622 0 0 1-1.622-4 5.622 5.622 0 0 0 1.622 4zm1204.583-248.55a11.352 11.352 0 0 1 3.352-8.108 11.352 11.352 0 0 0 0 16.109 11.352 11.352 0 0 1-3.244-8zM341.418 802.192a5.622 5.622 0 0 1-1.73 3.892 5.622 5.622 0 0 0 1.73-4z" fill="#CCC"/><path d="M665.754 625.752a5.73 5.73 0 0 1 5.189 3.46 5.73 5.73 0 0 0-5.19-3.46 5.622 5.622 0 0 0-4.54 2.379 5.622 5.622 0 0 1 4.54-2.379z" fill="#EBEBEB"/><path d="M665.754 625.752a5.946 5.946 0 0 0-5.73 5.73 5.73 5.73 0 1 0 5.73-5.73z" fill="#EBEBEB"/><path d="M661.213 628.13a5.514 5.514 0 0 0-1.081 3.244 5.622 5.622 0 0 0 1.621 4.108 5.622 5.622 0 0 1-1.73-4 5.514 5.514 0 0 1 1.19-3.243zM644.78 372.555a236.981 236.981 0 0 1 11.352-33.299 236.981 236.981 0 0 0-11.352 33.299zm11.352-33.299q4.54-10.81 10.054-20.865-5.514 10.162-10.054 20.865zm430.285-20.865q5.406 10.162 10.055 20.865-4.54-10.81-10.055-20.865zm0 0a239.792 239.792 0 0 0-49.515-62.921 239.792 239.792 0 0 1 49.515 62.92zm10.055 20.865a236.981 236.981 0 0 1 11.243 33.299 236.981 236.981 0 0 0-11.243-33.299zm-380.77-83.786a240.009 240.009 0 0 1 27.027-21.298 240.117 240.117 0 0 0-27.028 21.298zm0 0a239.792 239.792 0 0 0-49.516 62.92 239.792 239.792 0 0 1 49.407-62.92zm36.757-27.46q9.73-6.055 20.325-11.028-10.486 4.973-20.325 11.027zm257.307 6.162a240.009 240.009 0 0 1 27.136 21.298 240.117 240.117 0 0 0-27.028-21.298zm-29.947-17.19q10.487 4.973 20.325 11.027-9.838-6.054-20.325-11.027z" fill="#EBEBEB"/><path d="M1107.715 372.554a236.981 236.981 0 0 0-11.243-33.299q-4.54-10.81-10.055-20.865a240.009 240.009 0 0 0-76.543-84.22q-4.865-3.243-9.73-6.162-9.838-6.054-20.325-11.027a239.576 239.576 0 0 0-207.143 0q-10.378 4.973-20.217 11.027-4.973 2.92-9.73 6.163a240.009 240.009 0 0 0-76.543 84.219q-5.514 10.162-10.054 20.865a236.981 236.981 0 0 0-11.352 33.299 238.927 238.927 0 1 0 462.935 0zm-231.36 289.74a229.306 229.306 0 0 1-163.14-67.786 235.144 235.144 0 0 1-10.811-11.892 229.954 229.954 0 1 1 173.844 79.678z" fill="#CCC"/><path d="M900.357 384.554a51.137 51.137 0 0 0-37.19-49.731 47.785 47.785 0 0 0-12.542-1.946 50.705 50.705 0 0 0-49.731 51.677 52.65 52.65 0 0 0 9.73 30.488 49.407 49.407 0 0 0 29.947 20.109 48.434 48.434 0 0 0 10.054 1.08 47.785 47.785 0 0 0 12.541-1.837 51.137 51.137 0 0 0 37.19-49.84z" fill="#EFEFEF"/><path d="M876.248 202.386a229.846 229.846 0 0 0-173.953 380.338c3.568 4 7.136 8 10.92 11.892a229.954 229.954 0 1 0 163.033-392.23zm-86.922 272.442a91.57 91.57 0 0 0-25.407 63.786 5.946 5.946 0 1 1-11.892 0 103.571 103.571 0 0 1 28.758-72.11 6.487 6.487 0 0 1 8.54-.325 6.703 6.703 0 0 1 0 8.649zM943.277 545.1a6.054 6.054 0 0 1-5.946-6.163 89.3 89.3 0 0 0-74.165-89.3 82.165 82.165 0 0 0-12.217-1.081c-.648.324-1.297 0-1.946 0a58.705 58.705 0 0 1-8.432-.865 61.624 61.624 0 0 1-44.326-32.65A65.3 65.3 0 0 1 789 384.879a63.03 63.03 0 0 1 61.624-64.003 59.462 59.462 0 0 1 12.541 1.298 64.651 64.651 0 0 1 16.541 118.923 101.95 101.95 0 0 1 69.516 97.841 6.054 6.054 0 0 1-5.946 6.163zm55.678-25.082a5.946 5.946 0 1 1-11.893-.217 72.219 72.219 0 0 0-68.218-75.462 6.162 6.162 0 0 1 0-12.324 43.245 43.245 0 0 0 0-85.841 6.162 6.162 0 0 1 0-12.325 52.867 52.867 0 0 1 50.38 54.92 55.894 55.894 0 0 1-25.082 47.57 88.327 88.327 0 0 1 54.705 82.814l.108.648z" fill="#EFEFEF"/><path d="M998.955 519.154v.865-.865zm-218.17-52.65a103.571 103.571 0 0 0-28.758 72.11 5.946 5.946 0 1 0 11.892 0 91.57 91.57 0 0 1 25.407-63.786 6.703 6.703 0 0 0 0-8.65 6.487 6.487 0 0 0-8.541.325zm98.922-25.407a64.651 64.651 0 0 0-16.54-118.923 59.462 59.462 0 0 0-12.542-1.298 63.03 63.03 0 0 0-61.624 64.003 65.3 65.3 0 0 0 7.244 30.163 61.624 61.624 0 0 0 44.326 32.65 58.705 58.705 0 0 0 8.432.865c.65 0 1.298.324 1.946 0a82.165 82.165 0 0 1 12.217 1.08 89.3 89.3 0 0 1 74.165 89.301 5.946 5.946 0 1 0 11.892 0 101.95 101.95 0 0 0-69.516-97.841zm-29.19-4.865a48.434 48.434 0 0 1-9.946-1.081 49.407 49.407 0 0 1-30.055-20.11 52.65 52.65 0 0 1-9.73-30.487 50.705 50.705 0 0 1 49.731-51.677 47.785 47.785 0 0 1 12.65 1.838 51.894 51.894 0 0 1 0 99.679 47.785 47.785 0 0 1-12.542 1.838z" fill="#CCC"/><path d="M944.142 436.232a55.894 55.894 0 0 0 25.082-47.461 52.867 52.867 0 0 0-50.38-54.921 6.162 6.162 0 0 0 0 12.325 43.245 43.245 0 0 1 0 85.84 6.162 6.162 0 0 0 0 12.325 72.219 72.219 0 0 1 68.218 75.462 5.946 5.946 0 1 0 11.893.217v-.865a88.327 88.327 0 0 0-54.813-82.922z" fill="#CCC"/></svg>