<svg class="icon" viewBox="0 0 1024 1024" xmlns="http://www.w3.org/2000/svg" data-spm-anchor-id="a313x.7781069.0.i28" width="200" height="200"><defs><style/></defs><path d="M531.06 482.56l-18.926-40.318-18.926 40.319a15.012 15.012 0 0 1-11.355 8.487l-43.863 6.707 32.234 33.041a15.078 15.078 0 0 1 4.09 12.938l-7.46 45.619 37.986-21a15.135 15.135 0 0 1 7.294-1.881c2.515 0 5.016.63 7.294 1.881l37.981 21-7.452-45.62a15.07 15.07 0 0 1 4.089-12.937l32.233-33.041-43.866-6.707a15.01 15.01 0 0 1-11.353-8.487z" fill="#0080FF" data-spm-anchor-id="a313x.7781069.0.i26"/><path d="M512.134 64.778c-247.087 0-447.394 200.303-447.394 447.394 0 247.087 200.307 447.393 447.394 447.393S959.528 759.26 959.528 512.172c0-247.09-200.306-447.394-447.394-447.394zm240.73 474.763c-13.606 120.945-116.137 215-240.727 215-133.852 0-242.374-108.52-242.374-242.37 0-25.085 20.358-45.446 45.447-45.446 25.086 0 45.444 20.36 45.444 45.447 0 117.133 88.168 212.072 196.925 212.072 100.14 0 182.81-80.517 195.286-184.703a229.762 229.762 0 0 0 1.578-21.673c-.17 7.32-.776 14.528-1.578 21.673zM592.13 615.12a15.076 15.076 0 0 1-6.19 14.729 15.081 15.081 0 0 1-15.97.87l-57.835-31.987-57.833 31.988a15.075 15.075 0 0 1-15.972-.871 15.075 15.075 0 0 1-6.193-14.73l11.223-68.736-47.382-48.587a15.047 15.047 0 0 1-3.501-15.29 15.065 15.065 0 0 1 12.001-10.104l64.88-9.913 29.146-62.082a15.052 15.052 0 0 1 13.631-8.66 15.053 15.053 0 0 1 13.632 8.66l29.144 62.082 64.881 9.913a15.059 15.059 0 0 1 8.5 25.394l-47.383 48.587 11.221 68.737zm116.93-57.506c-25.09 0-45.444-20.355-45.444-45.441 0-117.133-88.168-212.072-196.928-212.072-100.134 0-182.805 80.517-195.284 184.697a229.97 229.97 0 0 0-1.578 21.68c.17-7.322.776-14.53 1.578-21.68 13.61-120.941 116.138-214.996 240.734-214.996 133.844 0 242.366 108.522 242.366 242.372 0 25.085-20.354 45.44-45.444 45.44z" fill="#0080FF" data-spm-anchor-id="a313x.7781069.0.i23"/></svg>