<svg class="icon" viewBox="0 0 1024 1024" xmlns="http://www.w3.org/2000/svg" data-spm-anchor-id="a313x.7781069.0.i10" width="200" height="200"><defs><style/></defs><path d="M512 0c282.752 0 512 229.248 512 512 0 282.795-229.248 512-512 512S0 794.795 0 512C0 229.248 229.248 0 512 0zm257.792 386.859l-31.147-4.651-133.12 126.464a11.008 11.008 0 0 1-16.042-.768 12.245 12.245 0 0 1 .725-16.768l119.168-113.195-13.099-2.005a121.045 121.045 0 0 1-25.429-7.253L521.088 510.89a24.32 24.32 0 0 1-35.328-1.792 27.008 27.008 0 0 1 1.707-36.992L624.81 341.675c-19.072-15.36-35.414-34.006-44.544-53.334l-33.11-69.461c-19.797-41.6-52.01-41.515-71.552.213l-32.64 69.718c-19.541 41.77-71.594 81.493-115.584 88.32l-73.386 11.392c-43.99 6.826-53.846 38.912-21.888 71.253l53.333 53.973c31.915 32.342 52.01 96.299 44.63 142.166l-12.289 76.501c-7.424 45.824 18.731 65.579 58.027 43.776l65.621-36.31c39.254-21.76 103.68-21.973 143.104-.469l65.835 35.926c39.424 21.504 65.45 1.621 57.77-44.16l-12.8-76.459c-7.637-45.781 12.075-109.867 43.82-142.464l53.034-54.315c31.659-32.554 21.632-64.554-22.4-71.082z" fill="#0080FF" data-spm-anchor-id="a313x.7781069.0.i7"/></svg>