<svg class="icon" viewBox="0 0 1024 1024" xmlns="http://www.w3.org/2000/svg" width="200" height="200"><defs><style/></defs><path d="M0 512a512 512 0 1 0 1024 0A512 512 0 1 0 0 512z" fill="#1EBEF0"/><path d="M434.631 778.62L445.44 608.9l299.046-277.617c13.274-12.326-2.655-18.394-20.29-7.585l-369.02 240.26-159.478-52.148c-34.323-10.05-34.702-34.512 7.775-52.148l621.606-247.087c28.444-13.274 55.75 7.206 44.752 52.148L764.018 778.619c-7.396 36.599-28.824 45.511-58.406 28.634l-161.185-122.88-77.559 77.559a40.903 40.903 0 0 1-32.237 16.687zm0 0" fill="#F5F5F5"/></svg>