<svg class="icon" viewBox="0 0 1024 1024" xmlns="http://www.w3.org/2000/svg" width="200" height="200"><defs><style/></defs><path d="M484.283 1.427h58.485c2.23.503 4.438 1.18 6.696 1.484 22.56 3.034 45.429 4.57 67.642 9.24C721.615 34.123 811.071 83.713 884.59 161.344c71.354 75.348 115.617 164.389 133.105 266.694 2.102 12.299 3.87 24.657 5.792 36.987V560.6c-.495 2.013-1.147 4-1.457 6.039-2.252 14.78-3.76 29.706-6.744 44.334-26.933 131.925-94.607 238.183-203.643 317.006-99.347 71.818-211.105 102.645-333.44 94.855-69.391-4.419-135.028-22.67-196.9-54.343C200 926.87 134.388 867.693 84.532 791.23 41.972 725.96 15.861 654.55 6.28 577.16c-1.39-11.224-2.76-22.452-4.14-33.68v-61.337c.479-1.757 1.187-3.487 1.402-5.276 2.041-16.959 3.253-34.055 6.107-50.874 14.054-82.774 46.871-157.485 97.934-224.106 47.296-61.705 105.71-110.178 175.015-145.375 52.318-26.571 107.618-43.65 165.93-50.749 11.919-1.45 23.837-2.89 35.756-4.336zm79.373 808.075c39.55-.684 73.567-14.513 101.403-42.93 21.84-22.296 35.153-49.398 43.26-79.11 14.728-53.983 15.628-108.79 7.796-163.842-4.707-33.09-15.759-64.02-35.424-91.367-27.679-38.49-66.03-60.45-111.544-71.084-52.298-12.216-101.37-5.567-146.265 25.125-37.477 25.618-55.319 68.999-45.628 111.604 6.388 28.083 23.86 48.701 46.314 65.432 12.36 9.212 25.717 17.088 37.99 26.406 15.704 11.923 28.923 26.563 30.145 47.147.77 12.987-1.586 26.427-4.298 39.294-4.54 21.543-11.725 42.564-9.415 65.12 2.45 23.935 12.645 43.034 33.723 55.514 15.982 9.462 33.485 12.943 51.943 12.691zM423.499 309.758c.245-49.976-39.715-90.425-89.547-90.64-50.155-.218-90.765 39.56-91.021 89.15-.26 50.523 39.52 91.133 89.548 91.419 50.328.29 90.774-39.675 91.02-89.93zm253.632-36.438c.02-25.034-20.168-45.218-45.187-45.18-24.678.038-44.918 20.11-45.05 44.677-.137 25.045 20.02 45.497 44.899 45.557 25.088.061 45.32-20.045 45.338-45.054zm-221.844-11.795c.129 24.666 20.224 44.815 44.809 44.929 24.747.114 45.477-20.415 45.58-45.134.102-24.815-20.348-45.096-45.43-45.053-25.182.044-45.09 20.083-44.96 45.258zm283.46 116.942c25.107.076 45.37-20.014 45.367-44.975-.003-24.91-20.583-45.574-45.217-45.401-24.529.173-44.91 20.497-45.02 44.895-.113 25.126 19.894 45.406 44.87 45.481z" fill="#0080FF" data-spm-anchor-id="a313x.7781069.0.i17"/></svg>