<svg class="icon" viewBox="0 0 1024 1024" xmlns="http://www.w3.org/2000/svg" width="200" height="200"><defs><style/></defs><path d="M1018.88 515.41c0-278.057-225.413-503.47-503.47-503.47S11.945 237.358 11.945 515.41s225.413 503.47 503.465 503.47 503.47-225.413 503.47-503.47z" fill="#0080FF" data-spm-anchor-id="a313x.7781069.0.i12"/><path d="M567.69 242.59c.374 0 .748 0 .994.062.619 3.354.496 11.858-4.844 26.204l-46.26 125.558c-11.985 32.476-39.74 56.008-66.006 56.008a40.259 40.259 0 0 1-14.157-2.483c-29.368-10.804-44.396-43.464-33.592-72.838 13.414-36.326 64.455-87.741 109.225-109.967l29.993-14.904c13.967-6.897 21.852-7.64 24.647-7.64m55.015 156.417a55.639 55.639 0 0 1 19.374 3.476c36.326 13.415 87.741 64.456 109.967 109.225l14.904 29.993c6.83 13.722 7.824 22.17 7.64 25.585a21.207 21.207 0 0 1-3.477.25c-4.163 0-11.428-.87-22.79-5.027l-125.557-46.26c-39.618-14.591-64.143-51.292-53.524-80.163 8.197-22.18 29.68-37.08 53.463-37.08m-375.24 49.301c4.163 0 11.428.87 22.79 5.028l125.557 46.26c20.183 7.449 37.381 21.048 47.252 37.319 8.817 14.592 11.054 29.803 6.272 42.844-8.197 22.17-29.619 37.069-53.401 37.069a55.639 55.639 0 0 1-19.374-3.477c-36.327-13.347-87.742-64.455-109.968-109.225l-14.904-29.993c-6.83-13.721-7.823-22.17-7.64-25.584a21.811 21.811 0 0 1 3.416-.24m319.54 117.048c4.904 0 9.686.808 14.156 2.483 29.368 10.803 44.395 43.463 33.592 72.837-13.348 36.326-64.455 87.741-109.225 110.034l-29.993 14.904c-13.85 6.892-21.795 7.64-24.591 7.64-.374 0-.748 0-.993-.062-.62-3.354-.497-11.858 4.843-26.204l46.26-125.558c11.868-32.476 39.685-56.074 65.95-56.074m.686-349.282c-9.871 0-22.17 3.354-36.388 10.368l-29.993 14.905C449.833 266.93 394.82 323 378.982 365.906c-15.836 43.034 6.334 91.095 49.306 106.926 7.578 2.796 15.401 4.096 23.286 4.096 36.823 0 74.578-29 90.905-73.395l46.26-125.558c14.407-38.989 4.843-61.9-21.049-61.9zm55.015 156.416c-33.905 0-65.946 20.864-78.3 54.457-15.837 42.967 15.339 94.382 69.237 114.19l125.558 46.26c12.355 4.531 23.035 6.707 31.98 6.707 29.992 0 39.306-24.463 19.62-64.143l-14.905-29.993c-25.585-51.476-81.654-106.49-124.56-122.327a81.664 81.664 0 0 0-28.63-5.15zm-375.24 49.24c-30.054 0-39.306 24.463-19.62 64.143l14.904 29.993c25.585 51.476 81.654 106.49 124.56 122.327 9.375 3.476 19.062 5.089 28.564 5.089 33.905 0 65.946-20.864 78.3-54.456 15.837-42.967-15.34-94.382-69.237-114.192l-125.492-46.198c-12.354-4.53-23.096-6.707-31.979-6.707zm319.54 117.114c-36.824 0-74.579 29-90.906 73.395l-46.26 125.553c-14.346 38.994-4.782 61.972 21.11 61.972 9.871 0 22.17-3.353 36.388-10.368l29.993-14.904c51.476-25.584 106.49-81.654 122.327-124.56 15.836-42.966-6.395-91.028-49.367-106.864a65.52 65.52 0 0 0-23.286-4.224z" fill="#FFF" data-spm-anchor-id="a313x.7781069.0.i15"/></svg>