<svg class="icon" viewBox="0 0 1024 1024" xmlns="http://www.w3.org/2000/svg" width="200" height="200"><defs><style/></defs><path d="M708.101 430.285C675.37 339.896 611.773 283.213 512 283.213c-99.359 0-179.41 57.277-212.444 147.077-1.644-2.043-14.459-14.556-16.343-16.343C301.916 304.517 400.604 234.184 512 234.184c110.853 0 193.132 71.096 212.444 179.758-6.876 9.42-16.343 16.343-16.343 16.343zm65.367-32.681C744.776 277.59 639.795 185.16 512 185.16c-131.323 0-239.319 89.845-261.468 212.444-33.224 6.354-49.024 23.557-49.024 49.024v114.39c0 28.565 21.289 49.025 49.024 49.025 15.641 0 39.833-4.772 49.024-16.343 22.216 59.878 98.498 133.509 115.43 135.572 8.443 1.02 13.389 1.485 7.721-5.488-8.376-10.292-61.076-61.696-71.414-133.78-4.567-31.73 18.77-62.88 45.896-68.02 43.602-8.269 86.943-17.7 130.54-25.82 27.704-5.14 46.633-20.634 58.22-46.439 2.713-6.03 5.97-18.19 7.756-35.778 1.597-8.745 9.928-2.826 10.276-2.36 0 0 62.208 21.227 71.434 133.1 5.617 67.854-55.665 158.535-62.556 169.113.43-.656.082 9.16 5.873 5.934 51.532-28.933 91.064-77.271 109.332-135.409a51.528 51.528 0 0 0 32.415 22.088c-21.56 100.014-109.061 162.606-217.488 172.119-6.497-16.44-22.487-28.104-41.272-28.104-24.545 0-44.431 19.82-44.431 44.211 0 24.418 19.886 44.206 44.431 44.206 19.773 0 36.337-12.958 42.102-30.77C669.3 797.7 769.91 721.632 790.912 603.488c18.56-7.9 31.585-20.807 31.585-42.465V446.628c-.005-42.035-48.84-48.256-49.029-49.024z" fill="#FFF"/><path d="M512 234.184c-111.39 0-210.084 70.328-228.787 179.758 1.884 1.787 14.7 14.3 16.343 16.343C332.59 340.485 412.64 283.213 512 283.213c99.773 0 163.369 56.683 196.101 147.077 0 0 9.462-6.927 16.343-16.343C705.132 305.28 622.848 234.184 512 234.184z" fill="#2BA3D4"/><path d="M512 64C264.576 64 64 264.576 64 512s200.576 448 448 448 448-200.576 448-448S759.424 64 512 64zm310.497 497.024c0 21.658-13.025 34.565-31.585 42.465-21.002 118.144-121.605 194.212-247.091 204.585-5.76 17.813-22.329 30.771-42.102 30.771-24.545 0-44.431-19.788-44.431-44.206 0-24.391 19.886-44.21 44.431-44.21 18.785 0 34.775 11.663 41.267 28.103 108.421-9.513 195.927-72.1 217.488-172.12a51.528 51.528 0 0 1-32.415-22.087c-18.273 58.138-57.805 106.476-109.333 135.409-5.79 3.225-5.442-6.59-5.872-5.934 6.891-10.583 68.178-101.259 62.561-169.114-9.226-111.872-71.434-133.094-71.434-133.094-.348-.461-8.679-6.385-10.276 2.36-1.787 17.587-5.043 29.747-7.757 35.779-11.586 25.804-30.515 41.303-58.22 46.438-43.596 8.12-86.942 17.556-130.544 25.82-27.13 5.14-50.463 36.29-45.896 68.02 10.343 72.084 63.038 123.489 71.414 133.78 5.668 6.973.717 6.512-7.72 5.488-16.933-2.058-93.216-75.694-115.431-135.572-9.19 11.571-33.388 16.343-49.024 16.343-27.735 0-49.024-20.46-49.024-49.024V446.628c0-25.472 15.8-42.675 49.024-49.024C272.68 275.005 380.672 185.16 512 185.16c127.8 0 232.776 92.431 261.468 212.444.19.768 49.024 6.989 49.03 49.024v114.396z" fill="#2BA3D4"/></svg>