<svg class="icon" viewBox="0 0 1024 1024" xmlns="http://www.w3.org/2000/svg" width="200" height="200"><defs><style/></defs><path d="M810.667 322.133c-74.667 0-136.534-61.866-136.534-136.533 0-74.667 61.867-136.533 136.534-136.533S947.2 110.933 947.2 185.6c0 74.667-61.867 136.533-136.533 136.533zm0-211.2c-40.534 0-72.534 32-72.534 72.534s32 72.533 72.534 72.533 72.533-32 72.533-72.533c0-38.4-32-72.534-72.533-72.534zM279.467 742.4c-74.667 0-136.534-61.867-136.534-136.533 0-74.667 61.867-136.534 136.534-136.534S416 531.2 416 605.867c0 74.666-61.867 136.533-136.533 136.533zm0-209.067c-40.534 0-72.534 32-72.534 72.534s32 72.533 72.534 72.533S352 646.4 352 605.867s-32-72.534-72.533-72.534zm486.4 430.934c-74.667 0-136.534-61.867-136.534-136.534 0-74.666 61.867-136.533 136.534-136.533S902.4 753.067 902.4 827.733c2.133 74.667-59.733 136.534-136.533 136.534zm0-211.2c-40.534 0-72.534 32-72.534 72.533s32 72.533 72.534 72.533 72.533-32 72.533-72.533c2.133-38.4-32-72.533-72.533-72.533z" fill="#666" data-spm-anchor-id="a313x.7781069.0.i0"/><path d="M694.613 233.323l38.827 50.88-356.224 271.701-38.827-50.88zM375.445 619.947l309.59 143.744-26.966 58.048L348.48 678.016z" fill="#666" data-spm-anchor-id="a313x.7781069.0.i1"/></svg>