<?xml version="1.0" standalone="no"?><!DOCTYPE svg PUBLIC "-//W3C//DTD SVG 1.1//EN" "http://www.w3.org/Graphics/SVG/1.1/DTD/svg11.dtd"><svg t="1527055787200" class="icon" style="" viewBox="0 0 1024 1024" version="1.1" xmlns="http://www.w3.org/2000/svg" p-id="4786" xmlns:xlink="http://www.w3.org/1999/xlink" width="200" height="200"><defs><style type="text/css"></style></defs><path d="M810.666667 322.133333c-74.666667 0-136.533333-61.866667-136.533334-136.533333 0-74.666667 61.866667-136.533333 136.533334-136.533333s136.533333 61.866667 136.533333 136.533333c0 74.666667-61.866667 136.533333-136.533333 136.533333z m0-211.2c-40.533333 0-72.533333 32-72.533334 72.533334S770.133333 256 810.666667 256s72.533333-32 72.533333-72.533333c0-38.4-32-72.533333-72.533333-72.533334zM279.466667 742.4c-74.666667 0-136.533333-61.866667-136.533334-136.533333 0-74.666667 61.866667-136.533333 136.533334-136.533334s136.533333 61.866667 136.533333 136.533334c0 74.666667-61.866667 136.533333-136.533333 136.533333z m0-209.066667c-40.533333 0-72.533333 32-72.533334 72.533334s32 72.533333 72.533334 72.533333 72.533333-32 72.533333-72.533333S320 533.333333 279.466667 533.333333zM765.866667 964.266667c-74.666667 0-136.533333-61.866667-136.533334-136.533334 0-74.666667 61.866667-136.533333 136.533334-136.533333s136.533333 61.866667 136.533333 136.533333c2.133333 74.666667-59.733333 136.533333-136.533333 136.533334z m0-211.2c-40.533333 0-72.533333 32-72.533334 72.533333s32 72.533333 72.533334 72.533333 72.533333-32 72.533333-72.533333c2.133333-38.4-32-72.533333-72.533333-72.533333z" fill="#666666" p-id="4787" data-spm-anchor-id="a313x.7781069.0.i0" class=""></path><path d="M694.613333 233.322667l38.826667 50.88-356.224 271.701333-38.826667-50.88zM375.445333 619.946667l309.589334 143.744-26.965334 58.048-309.589333-143.722667z" fill="#666666" p-id="4788" data-spm-anchor-id="a313x.7781069.0.i1" class=""></path></svg>