<svg class="icon" viewBox="0 0 1024 1024" xmlns="http://www.w3.org/2000/svg" width="200" height="200"><defs><style/></defs><path d="M1023.672 502.569c-.885-70.006-15.078-135.782-42.644-197.258A515.758 515.758 0 0 0 870.016 145.1C823.619 99.794 769.167 64.108 706.939 38.04A493.993 493.993 0 0 0 507.904.308v.067a512.788 512.788 0 0 0-198.968 41.692A515.359 515.359 0 0 0 146.473 151.92c-45.988 46.26-82.084 100.3-108.283 162.259A486.697 486.697 0 0 0 .323 512.05a483.354 483.354 0 0 0 38.553 187.095 547.932 547.932 0 0 0 95.457 150.794 84.51 84.51 0 0 1 22.994 43.807c2.73 15.693-3.614 28.042-18.97 36.982-26.132 14.397-61.342 25.585-105.625 33.705-3.548.886-1.295 3.343 6.825 7.368a258.637 258.637 0 0 0 41.35 14.192 851.873 851.873 0 0 0 73.691 16.103 1189.612 1189.612 0 0 0 105.554 13.511c72.259 7.163 131.144 9.62 176.722 7.368 45.578-2.253 85.494-5.596 119.818-10.03a530.442 530.442 0 0 0 184.776-54.584 526.326 526.326 0 0 0 148.885-111.698 511.401 511.401 0 0 0 98.867-156.252 476.283 476.283 0 0 0 34.452-187.843zM718.68 446.147h-47.217l-41.17 113.167h42.537c18.93 0 34.243 15.022 34.243 33.95 0 18.73-15.508 33.951-34.243 33.951h-67.215l-29.169 80.195c-6.338 17.464-25.656 26.532-43.412 20.096-17.659-6.441-26.732-25.953-20.388-43.315l20.49-56.97-.005-.006H421.903l-29.168 80.195c-6.339 17.464-25.657 26.537-43.413 20.096-17.659-6.441-26.731-25.948-20.388-43.315l20.782-56.976h-44.39c-18.923 0-34.242-15.022-34.242-33.95 0-18.73 15.513-33.951 34.242-33.951h69.069l41.17-113.167h-64.39c-18.923 0-34.242-15.023-34.242-33.951 0-18.73 15.514-33.95 34.243-33.95h89.17l22.435-61.656c6.339-17.464 25.657-26.532 43.413-20.096 17.659 6.441 26.731 25.948 20.388 43.315L512.63 378.25h111.216l22.441-61.655c6.339-17.464 25.657-26.532 43.413-20.096 17.659 6.436 26.731 25.948 20.388 43.315l-13.952 38.441h22.538c18.923 0 34.242 15.022 34.242 33.951.006 18.724-15.508 33.94-34.237 33.94z" fill="#1380DC" data-spm-anchor-id="a313x.7781069.0.i5"/><path d="M446.587 559.314h111.217l41.17-113.167H487.756z" fill="#1380DC" data-spm-anchor-id="a313x.7781069.0.i6"/></svg>